<svg id="Layer_1" data-name="Layer 1" xmlns="http://www.w3.org/2000/svg" xmlns:xlink="http://www.w3.org/1999/xlink" viewBox="0 0 1000 655"><defs><style>.cls-1{fill:none;}.cls-2{fill:#649962;}.cls-3{fill:#8eaf54;}.cls-4{fill:#59594f;}.cls-5{clip-path:url(#clip-path);}.cls-6{fill:#b9e8ef;}.cls-7{fill:#9dc4d6;opacity:0.46;}.cls-8{fill:#7e9b7c;}.cls-9{fill:#95c178;}.cls-10{fill:#6fb56b;}.cls-11{clip-path:url(#clip-path-2);}.cls-12,.cls-13,.cls-14,.cls-19{fill:#fff;}.cls-12{opacity:0.7;}.cls-14{opacity:0.8;}.cls-15{fill:#333;}.cls-16{fill:#2b2b2b;opacity:0.05;}.cls-17{fill:#59594e;}.cls-18{fill:#9bc161;}.cls-19{font-size:45px;font-family:Raleway-SemiBold, Raleway;font-weight:700;}.cls-20{letter-spacing:-0.03em;}.cls-21{letter-spacing:-0.03em;}.cls-22{letter-spacing:-0.02em;}.cls-23{letter-spacing:-0.03em;}.cls-24{letter-spacing:-0.01em;}.cls-25{letter-spacing:-0.03em;}</style><clipPath id="clip-path"><rect class="cls-1" x="-1" y="-1" width="1002" height="656"/></clipPath><clipPath id="clip-path-2"><rect id="_Rectangle_" data-name="&lt;Rectangle&gt;" class="cls-1" x="188" y="461.58" width="137" height="244"/></clipPath><symbol id="New_Symbol" data-name="New Symbol" viewBox="0 0 78.77 184.69"><g id="_Group_9" data-name="&lt;Group&gt;"><polygon id="_Path_27" data-name="&lt;Path&gt;" class="cls-2" points="39.38 111.1 0 111.1 39.38 0 39.38 111.1"/><polyline id="_Path_28" data-name="&lt;Path&gt;" class="cls-3" points="78.77 111.1 39.38 0 39.38 111.1"/><rect id="_Rectangle_4" data-name="&lt;Rectangle&gt;" class="cls-4" x="33.17" y="111.1" width="14.96" height="73.58"/></g></symbol></defs><title>Artboard 1 copy 6</title><g class="cls-5"><g id="_Group_" data-name="&lt;Group&gt;"><rect id="_Rectangle_2" data-name="&lt;Rectangle&gt;" class="cls-6" x="-12" y="-7" width="1017" height="613.86"/><g id="_Group_2" data-name="&lt;Group&gt;"><polygon id="_Path_" data-name="&lt;Path&gt;" class="cls-7" points="272.48 476.86 254.04 528.86 270 528.86 270 563.86 276 563.86 276 528.86 290.91 528.86 272.48 476.86"/><polygon id="_Path_2" data-name="&lt;Path&gt;" class="cls-7" points="298.82 487.86 280.39 539.86 296 539.86 296 574.86 304 574.86 304 539.86 317.25 539.86 298.82 487.86"/><polygon id="_Path_3" data-name="&lt;Path&gt;" class="cls-7" points="325.2 515.76 311.78 544.86 323 544.86 323 564.86 328 564.86 328 544.86 338.61 544.86 325.2 515.76"/><polygon id="_Path_4" data-name="&lt;Path&gt;" class="cls-7" points="390.78 515.76 377.37 544.86 389 544.86 389 564.86 394 564.86 394 544.86 404.2 544.86 390.78 515.76"/><g id="_Group_3" data-name="&lt;Group&gt;"><polygon id="_Path_5" data-name="&lt;Path&gt;" class="cls-7" points="229.36 470.86 247.79 522.86 232 522.86 232 557.86 226 557.86 226 522.86 210.93 522.86 229.36 470.86"/><polygon id="_Path_6" data-name="&lt;Path&gt;" class="cls-7" points="203.01 480.86 221.45 532.86 205 532.86 205 567.86 200 567.86 200 532.86 184.58 532.86 203.01 480.86"/><polygon id="_Path_7" data-name="&lt;Path&gt;" class="cls-7" points="176.64 510.76 190.05 539.86 179 539.86 179 558.86 173 558.86 173 539.86 163.23 539.86 176.64 510.76"/><polygon id="_Path_8" data-name="&lt;Path&gt;" class="cls-7" points="111.05 510.76 124.47 539.86 113 539.86 113 558.86 108 558.86 108 539.86 97.64 539.86 111.05 510.76"/></g><g id="_Group_4" data-name="&lt;Group&gt;"><polygon id="_Path_9" data-name="&lt;Path&gt;" class="cls-7" points="329.09 483.86 310.66 535.86 326 535.86 326 571.86 334 571.86 334 535.86 347.53 535.86 329.09 483.86"/><polygon id="_Path_10" data-name="&lt;Path&gt;" class="cls-7" points="355.44 494.86 337.01 546.86 352 546.86 352 581.86 359 581.86 359 546.86 373.87 546.86 355.44 494.86"/><polygon id="_Path_11" data-name="&lt;Path&gt;" class="cls-7" points="381.81 523.76 368.4 552.86 379 552.86 379 572.86 384 572.86 384 552.86 395.23 552.86 381.81 523.76"/><polygon id="_Path_12" data-name="&lt;Path&gt;" class="cls-7" points="447.4 523.76 433.99 552.86 445 552.86 445 572.86 450 572.86 450 552.86 460.81 552.86 447.4 523.76"/></g></g><g id="_Group_5" data-name="&lt;Group&gt;"><polygon id="_Path_13" data-name="&lt;Path&gt;" class="cls-7" points="735.98 482.86 754.41 534.86 738 534.86 738 569.86 732 569.86 732 534.86 717.55 534.86 735.98 482.86"/><polygon id="_Path_14" data-name="&lt;Path&gt;" class="cls-7" points="709.63 493.86 728.07 545.86 712 545.86 712 580.86 704 580.86 704 545.86 691.2 545.86 709.63 493.86"/><polygon id="_Path_15" data-name="&lt;Path&gt;" class="cls-7" points="683.26 521.76 696.67 550.86 685 550.86 685 570.86 680 570.86 680 550.86 669.85 550.86 683.26 521.76"/><polygon id="_Path_16" data-name="&lt;Path&gt;" class="cls-7" points="617.67 521.76 631.08 550.86 619 550.86 619 570.86 614 570.86 614 550.86 604.26 550.86 617.67 521.76"/><g id="_Group_6" data-name="&lt;Group&gt;"><polygon id="_Path_17" data-name="&lt;Path&gt;" class="cls-7" points="779.09 476.86 760.66 528.86 776 528.86 776 563.86 782 563.86 782 528.86 797.53 528.86 779.09 476.86"/><polygon id="_Path_18" data-name="&lt;Path&gt;" class="cls-7" points="805.44 486.86 787.01 538.86 803 538.86 803 573.86 808 573.86 808 538.86 823.87 538.86 805.44 486.86"/><polygon id="_Path_19" data-name="&lt;Path&gt;" class="cls-7" points="831.82 516.76 818.4 545.86 829 545.86 829 564.86 835 564.86 835 545.86 845.23 545.86 831.82 516.76"/><polygon id="_Path_20" data-name="&lt;Path&gt;" class="cls-7" points="897.4 516.76 883.99 545.86 895 545.86 895 564.86 900 564.86 900 545.86 910.82 545.86 897.4 516.76"/></g><g id="_Group_7" data-name="&lt;Group&gt;"><polygon id="_Path_21" data-name="&lt;Path&gt;" class="cls-7" points="679.36 489.86 697.79 541.86 682 541.86 682 577.86 674 577.86 674 541.86 660.93 541.86 679.36 489.86"/><polygon id="_Path_22" data-name="&lt;Path&gt;" class="cls-7" points="653.01 500.86 671.45 552.86 656 552.86 656 587.86 649 587.86 649 552.86 634.58 552.86 653.01 500.86"/><polygon id="_Path_23" data-name="&lt;Path&gt;" class="cls-7" points="626.64 529.76 640.05 558.86 629 558.86 629 578.86 624 578.86 624 558.86 613.23 558.86 626.64 529.76"/><polygon id="_Path_24" data-name="&lt;Path&gt;" class="cls-7" points="561.05 529.76 574.47 558.86 563 558.86 563 578.86 558 578.86 558 558.86 547.64 558.86 561.05 529.76"/></g></g><g id="_Group_8" data-name="&lt;Group&gt;"><polygon id="_Path_25" data-name="&lt;Path&gt;" class="cls-2" points="704.48 539.13 680.99 539.13 704.48 489.19 704.48 539.13"/><polyline id="_Path_26" data-name="&lt;Path&gt;" class="cls-3" points="727.97 539.13 704.48 489.19 704.48 539.13"/><rect id="_Rectangle_3" data-name="&lt;Rectangle&gt;" class="cls-4" x="700.77" y="539.13" width="8.92" height="43.89"/></g><use id="New_Symbol-3" data-name="New Symbol" width="78.77" height="184.69" transform="translate(766.53 463.35) scale(0.65)" xlink:href="#New_Symbol"/><use id="New_Symbol-6" data-name="New Symbol" width="78.77" height="184.69" transform="translate(566.57 499.74) scale(0.48)" xlink:href="#New_Symbol"/><g id="_Group_11" data-name="&lt;Group&gt;"><polygon id="_Path_31" data-name="&lt;Path&gt;" class="cls-2" points="858.92 547.2 835.42 547.2 858.92 487.43 858.92 547.2"/><polyline id="_Path_32" data-name="&lt;Path&gt;" class="cls-3" points="882.41 547.2 858.92 487.43 858.92 547.2"/><rect id="_Rectangle_6" data-name="&lt;Rectangle&gt;" class="cls-4" x="855.21" y="547.2" width="8.92" height="52.53"/></g><use id="New_Symbol-9" data-name="New Symbol" width="78.77" height="184.69" transform="translate(88.75 482.04) scale(0.49)" xlink:href="#New_Symbol"/><use id="New_Symbol-12" data-name="New Symbol" width="78.77" height="184.69" transform="translate(31.05 444.37) scale(0.67)" xlink:href="#New_Symbol"/><path id="_Path_37" data-name="&lt;Path&gt;" class="cls-8" d="M575.71,585.45s124.55-33.66,183.52-36.24,132.09,12.37,132.09,12.37l168.25,60.14-147,40.11Z"/><path id="_Path_38" data-name="&lt;Path&gt;" class="cls-9" d="M-66,566.61s11.5-10.54,251.76-12.88S1010,622.58,1010,622.58l-8.32,45.93-598,11.13L-66,681.4Z"/><g id="_Group_14" data-name="&lt;Group&gt;"><path id="_Compound_Path_" data-name="&lt;Compound Path&gt;" class="cls-2" d="M150.88,589.16A9,9,0,0,0,147,590c-1.79-10.68-9.89-18.74-19.61-18.74a17.4,17.4,0,0,0-3.15.29c-3.71-13.05-16.85-22.7-32.5-22.7-14.85,0-27.44,8.7-31.85,20.74-4.08-6-10-9.79-16.62-9.79-10.16,0-18.73,8.94-21.42,21.16a24.1,24.1,0,0,0-4.66-.46c-12.37,0-22.43,9.33-22.43,20.84C-5.2,611.91,4,620.6,14,622v.83H151v-.62s0,0,0,0c6.6,0,11.86-7.4,11.86-16.54S157.48,589.16,150.88,589.16ZM64.78,597c.23.28.46.54.7.81l-.86-.08C64.68,597.53,64.73,597.29,64.78,597Z"/><path id="_Compound_Path_2" data-name="&lt;Compound Path&gt;" class="cls-10" d="M180,604.8a9.75,9.75,0,0,0-3.84.8c-1.79-9.68-9.89-17-19.61-17a19.13,19.13,0,0,0-3.15.26c-3.71-11.84-16.85-20.59-32.5-20.59-14.85,0-27.44,7.89-31.85,18.81-4.08-5.44-10-8.87-16.62-8.87-10.16,0-18.73,8.11-21.42,19.19a26.49,26.49,0,0,0-4.66-.41c-12.37,0-22.47,8.46-22.47,18.9,0,9.53,9.15,17.41,19.15,18.71v.25H180v-.07h.08c6.6,0,11.89-6.72,11.89-15S186.58,604.8,180,604.8Zm-86.1,7.14c.23.25.46.49.7.74l-.86-.07C93.78,612.39,93.83,612.17,93.88,611.94Z"/></g><path id="_Compound_Path_3" data-name="&lt;Compound Path&gt;" class="cls-2" d="M1099.85,582.64a8.14,8.14,0,0,0-3.48.8c-1.63-9.69-9-17-17.79-17a15.78,15.78,0,0,0-2.86.26c-3.37-11.84-15.29-20.59-29.48-20.59-13.47,0-24.89,7.89-28.89,18.82-3.7-5.45-9.09-8.88-15.08-8.88-9.22,0-17,8.11-19.43,19.2a21.86,21.86,0,0,0-4.23-.41c-11.22,0-20.19,8.46-20.19,18.9,0,9.53,7.57,17.41,17.57,18.71v.41h124v-.22s0,0,0,0c6,0,10.75-6.72,10.75-15S1105.84,582.64,1099.85,582.64Zm-78.1,7.14c.2.25.42.49.63.74l-.78-.07C1021.66,590.23,1021.71,590,1021.76,589.79Z"/><path id="_Compound_Path_4" data-name="&lt;Compound Path&gt;" class="cls-2" d="M1023.8,594.18a8.14,8.14,0,0,0-3.48.8c-1.63-9.69-9-17-17.79-17a15.78,15.78,0,0,0-2.86.26c-3.37-11.84-15.29-20.59-29.48-20.59-13.47,0-24.89,7.89-28.89,18.82-3.7-5.45-9.09-8.88-15.08-8.88-9.22,0-17,8.11-19.43,19.2a21.86,21.86,0,0,0-4.23-.41c-11.22,0-20.16,8.46-20.16,18.9,0,9.53,7.59,17.41,17.59,18.71v.87h124v-.69s-.07,0,0,0c6,0,10.74-6.72,10.74-15S1029.79,594.18,1023.8,594.18Zm-78.1,7.14c.2.25.42.49.63.74l-.78-.07C945.61,601.77,945.66,601.54,945.71,601.32Z"/><path id="_Compound_Path_5" data-name="&lt;Compound Path&gt;" class="cls-10" d="M1036.05,605.73a8.14,8.14,0,0,0-3.48.8c-1.63-9.69-9-17-17.79-17a15.78,15.78,0,0,0-2.86.26c-3.37-11.84-15.29-20.59-29.48-20.59-13.47,0-24.89,7.89-28.89,18.82-3.7-5.45-9.09-8.88-15.08-8.88-9.22,0-17,8.11-19.43,19.2a21.86,21.86,0,0,0-4.23-.41c-11.22,0-20.29,8.46-20.29,18.9,0,9.53,7.47,17.41,17.47,18.71v.32h124v-.14h.11c6,0,10.8-6.72,10.8-15S1042,605.73,1036.05,605.73ZM958,612.87c.2.25.42.49.63.74l-.78-.07C957.86,613.32,957.91,613.09,958,612.87Z"/><g id="_Clip_Group_" data-name="&lt;Clip Group&gt;"><g class="cls-11"><g id="_Group_15" data-name="&lt;Group&gt;"><path id="_Compound_Path_6" data-name="&lt;Compound Path&gt;" class="cls-2" d="M346.71,598a3.94,3.94,0,0,0-1.69.39c-.79-4.69-4.35-8.24-8.62-8.24a7.65,7.65,0,0,0-1.39.13c-1.63-5.74-7.41-10-14.28-10-6.53,0-12.06,3.82-14,9.12a9,9,0,0,0-7.31-4.3c-4.47,0-8.23,3.93-9.41,9.3a10.59,10.59,0,0,0-2.05-.2c-5.44,0-10.13,4.1-10.13,9.16,0,4.62,4.17,8.44,8.17,9.07v.37h60v-.28h.4c2.9,0,5.4-3.25,5.4-7.27S349.61,598,346.71,598Zm-37.84,3.46.31.36-.38,0Z"/><path id="_Compound_Path_7" data-name="&lt;Compound Path&gt;" class="cls-10" d="M331,604.53a4.28,4.28,0,0,0-1.69.35,8.92,8.92,0,0,0-8.62-7.47,8.41,8.41,0,0,0-1.39.12c-1.63-5.2-7.41-9-14.28-9-6.53,0-12.06,3.47-14,8.27a9.18,9.18,0,0,0-7.31-3.9c-4.47,0-8.23,3.56-9.41,8.44a11.64,11.64,0,0,0-2.05-.18c-5.44,0-9.77,3.72-9.77,8.31,0,4.19,4.53,7.65,8.53,8.22v.22h60v-.14h0c2.9,0,5.23-3,5.23-6.59S333.89,604.53,331,604.53Zm-37.84,3.14.31.32-.38,0Z"/></g><use id="New_Symbol-15" data-name="New Symbol" width="78.77" height="184.69" transform="translate(255.5 511.68) scale(0.3)" xlink:href="#New_Symbol"/><use id="New_Symbol-18" data-name="New Symbol" width="78.77" height="184.69" transform="translate(195.74 505.52) scale(0.3 0.36)" xlink:href="#New_Symbol"/><use id="New_Symbol-21" data-name="New Symbol" width="78.77" height="184.69" transform="translate(280.47 489.19) scale(0.45)" xlink:href="#New_Symbol"/></g></g><path id="_Compound_Path_8" data-name="&lt;Compound Path&gt;" class="cls-12" d="M458.84,13.26a4.44,4.44,0,0,0-1.64.32,8.53,8.53,0,0,0-8.41-6.79,8.79,8.79,0,0,0-1.35.11c-1.59-4.73-7.23-8.23-13.93-8.23-6.37,0-11.76,3.15-13.66,7.52a9.15,9.15,0,0,0-7.13-3.55c-4.36,0-8,3.24-9.18,7.67a12.16,12.16,0,0,0-2-.17c-5.3,0-9.54,3.38-9.54,7.55,0,3.81,3.58,7,8.3,7.48v.16h58.61v-.09s0,0,0,0c2.83,0,5.08-2.68,5.08-6S461.67,13.26,458.84,13.26Zm-36.91,2.85.3.29-.37,0Z"/><path id="_Compound_Path_9" data-name="&lt;Compound Path&gt;" class="cls-13" d="M987.47,169.91a7.6,7.6,0,0,0-3,.61,15.62,15.62,0,0,0-15.15-13,14.94,14.94,0,0,0-2.44.2c-2.87-9-13-15.73-25.11-15.73-11.48,0-21.2,6-24.61,14.38a16.18,16.18,0,0,0-12.84-6.78c-7.85,0-14.47,6.2-16.55,14.67a20.69,20.69,0,0,0-3.6-.32c-9.56,0-17.2,6.47-17.2,14.44,0,7.28,6.45,13.3,15,14.3V193H987.59v-.17s0,0,0,0c5.1,0,9.16-5.13,9.16-11.46S992.57,169.91,987.47,169.91Zm-66.53,5.46.54.56-.66-.05C920.86,175.71,920.9,175.54,920.94,175.37Z"/><path id="_Compound_Path_10" data-name="&lt;Compound Path&gt;" class="cls-13" d="M1069.85,162.78a8.14,8.14,0,0,0-3.48.8c-1.63-9.69-9-17-17.79-17a15.78,15.78,0,0,0-2.86.26c-3.37-11.84-15.29-20.59-29.48-20.59-13.47,0-24.89,7.89-28.89,18.82-3.7-5.45-9.09-8.88-15.08-8.88-9.22,0-17,8.11-19.43,19.2a21.86,21.86,0,0,0-4.23-.41c-11.22,0-20.19,8.46-20.19,18.9,0,9.53,7.57,17.41,17.57,18.71V193h124v-.22s0,0,0,0c6,0,10.75-6.72,10.75-15S1075.84,162.78,1069.85,162.78Zm-78.1,7.14c.2.25.42.49.63.74l-.78-.07C991.66,170.37,991.71,170.15,991.76,169.93Z"/><path id="_Compound_Path_11" data-name="&lt;Compound Path&gt;" class="cls-13" d="M987.47,168.91a7.6,7.6,0,0,0-3,.61,15.62,15.62,0,0,0-15.15-13,14.94,14.94,0,0,0-2.44.2c-2.87-9-13-15.73-25.11-15.73-11.48,0-21.2,6-24.61,14.38a16.18,16.18,0,0,0-12.84-6.78c-7.85,0-14.47,6.2-16.55,14.67a20.69,20.69,0,0,0-3.6-.32c-9.56,0-17.2,6.47-17.2,14.44,0,7.28,6.45,13.3,15,14.3V192H987.59v-.17s0,0,0,0c5.1,0,9.16-5.13,9.16-11.46S992.57,168.91,987.47,168.91Zm-66.53,5.46.54.56-.66-.05C920.86,174.71,920.9,174.54,920.94,174.37Z"/><path id="_Compound_Path_12" data-name="&lt;Compound Path&gt;" class="cls-12" d="M650.42,85.76a6,6,0,0,0-1.51.19c-.71-2.32-3.9-4.07-7.73-4.07a12.29,12.29,0,0,0-1.24.06C638.48,79.1,633.3,77,627.14,77c-5.85,0-10.81,1.89-12.55,4.51A10.46,10.46,0,0,0,608,79.38c-4,0-7.38,1.94-8.44,4.6a17,17,0,0,0-1.84-.1c-4.87,0-8.77,2-8.77,4.53,0,2.28,3.29,4.17,7.63,4.49V93h53.85v-.05h0c2.6,0,4.67-1.61,4.67-3.6S653,85.76,650.42,85.76ZM616.5,87.47l.27.18-.34,0Z"/><path id="_Compound_Path_13" data-name="&lt;Compound Path&gt;" class="cls-14" d="M285.47,183.91a7.6,7.6,0,0,0-3,.61,15.62,15.62,0,0,0-15.15-13,14.94,14.94,0,0,0-2.44.2c-2.87-9-13-15.73-25.11-15.73-11.48,0-21.2,6-24.61,14.38a16.18,16.18,0,0,0-12.84-6.78c-7.85,0-14.47,6.2-16.55,14.67a20.69,20.69,0,0,0-3.6-.32c-9.56,0-17.2,6.47-17.2,14.44,0,7.28,6.45,13.3,15,14.3V207H285.59v-.17s0,0,0,0c5.1,0,9.16-5.13,9.16-11.46S290.57,183.91,285.47,183.91Zm-66.53,5.46.54.56-.66-.05C218.86,189.71,218.9,189.54,218.94,189.37Z"/><path id="_Compound_Path_14" data-name="&lt;Compound Path&gt;" class="cls-13" d="M58,200.7c0,8.33,5.35,15.08,12.05,15.08.06,0,0,0,0,0V216h139v-.41c11.21-1.31,19.69-9.23,19.69-18.82,0-10.5-10.05-19-22.63-19a27.23,27.23,0,0,0-4.74.42c-2.73-11.15-11.44-19.3-21.78-19.3-6.72,0-12.75,3.45-16.9,8.93-4.49-11-17.29-18.92-32.39-18.92-15.91,0-29.27,8.8-33,20.7a19.67,19.67,0,0,0-3.21-.26c-9.89,0-18.12,7.35-19.94,17.09a10,10,0,0,0-3.9-.8C63.53,185.61,58,192.37,58,200.7Zm99.94-7.23-.87.07c.24-.24.48-.49.71-.74C157.83,193,157.88,193.25,157.94,193.47Z"/><path id="_Compound_Path_15" data-name="&lt;Compound Path&gt;" class="cls-14" d="M236.47,157.91a7.6,7.6,0,0,0-3,.61,15.62,15.62,0,0,0-15.15-13,14.94,14.94,0,0,0-2.44.2c-2.87-9-13-15.73-25.11-15.73-11.48,0-21.2,6-24.61,14.38a16.18,16.18,0,0,0-12.84-6.78c-7.85,0-14.47,6.2-16.55,14.67a20.69,20.69,0,0,0-3.6-.32c-9.56,0-17.2,6.47-17.2,14.44,0,7.28,6.45,13.3,15,14.3V181H236.59v-.17s0,0,0,0c5.1,0,9.16-5.13,9.16-11.46S241.57,157.91,236.47,157.91Zm-66.53,5.46.54.56-.66-.05C169.86,163.71,169.9,163.54,169.94,163.37Z"/></g><rect id="_Rectangle_12" data-name="&lt;Rectangle&gt;" class="cls-13" x="221.66" y="406.24" width="65.94" height="25.25"/><path id="_Compound_Path_16" data-name="&lt;Compound Path&gt;" class="cls-15" d="M336,418.18A24.18,24.18,0,0,0,311.82,394h-121a24.18,24.18,0,0,0-24.18,24.18V729.68a24.18,24.18,0,0,0,24.18,24.18h121A24.18,24.18,0,0,0,336,729.68ZM268.66,427a3.83,3.83,0,0,1-3.83,3.83h-25A3.83,3.83,0,0,1,236,427v-.77a3.83,3.83,0,0,1,3.83-3.83h25a3.83,3.83,0,0,1,3.83,3.83ZM253.13,744.57a15.79,15.79,0,1,1,15.79-15.79A15.79,15.79,0,0,1,253.13,744.57Zm71.3-42.27H180.27V445.56H324.43Z"/><rect id="_Rectangle_13" data-name="&lt;Rectangle&gt;" class="cls-16" x="-4" y="-5" width="1017" height="666"/><g id="_Group_19" data-name="&lt;Group&gt;"><rect id="_Path_45" data-name="&lt;Path&gt;" class="cls-13" x="393.23" y="392.69" width="87.78" height="87.78" rx="20.92" ry="20.92"/><g id="_Group_20" data-name="&lt;Group&gt;"><rect id="_Rectangle_14" data-name="&lt;Rectangle&gt;" class="cls-17" x="435.7" y="409.38" width="3.54" height="62.21" rx="1.77" ry="1.77"/><path id="_Path_46" data-name="&lt;Path&gt;" class="cls-18" d="M418.61,422.66c-5.14-4.56-9.13-12.55-10.84-17.68,5.71.57,14.83,2.28,19.4,6.28,4,3.42,5.71,6.28,6.28,8.56.57,1.71,0,2.85-1.14,4.56-3.42,4-8,2.85-13.69-1.71Z"/><rect id="_Rectangle_15" data-name="&lt;Rectangle&gt;" class="cls-17" x="439.29" y="422.31" width="3.54" height="16.69" rx="1.77" ry="1.77" transform="translate(307.06 -171.04) rotate(33.13)"/><path id="_Path_47" data-name="&lt;Path&gt;" class="cls-18" d="M455.08,446c-4.09,4.68-7.69,5.7-10.82,2.77-2.81-2.64-2.32-6.29,2.07-11,4.11-4.07,11.61-6.43,15.51-7.47-.79,3.66-3,11.61-6.76,15.67Z"/></g></g><text class="cls-19" transform="translate(504.49 460.23)">Li<tspan class="cls-20" x="37.17" y="0">f</tspan><tspan x="52.02" y="0">eG</tspan><tspan class="cls-21" x="111.15" y="0">r</tspan><tspan class="cls-22" x="126.81" y="0">o</tspan><tspan class="cls-23" x="153.04" y="0">w</tspan><tspan x="189.18" y="0"> </tspan><tspan class="cls-24" x="200.29" y="0">M</tspan><tspan x="239.13" y="0">obile</tspan><tspan class="cls-25" x="345.69" y="0"> </tspan><tspan x="355.41" y="0">App</tspan></text></g></svg>