<?xml version="1.0" standalone="no"?>
<!DOCTYPE svg PUBLIC "-//W3C//DTD SVG 20010904//EN"
 "http://www.w3.org/TR/2001/REC-SVG-20010904/DTD/svg10.dtd">
<svg version="1.0" xmlns="http://www.w3.org/2000/svg"
 width="700.000000pt" height="700.000000pt" viewBox="0 0 700.000000 700.000000"
 preserveAspectRatio="xMidYMid meet">
<metadata>
Created by potrace 1.11, written by Peter Selinger 2001-2013
</metadata>
<g transform="translate(0.000000,700.000000) scale(0.100000,-0.100000)"
fill="#000000" stroke="none">
<path d="M0 3500 l0 -3500 3500 0 3500 0 0 3500 0 3500 -450 0 -450 0 0 -2312
c0 -1478 -4 -2356 -10 -2433 -38 -449 -189 -803 -455 -1070 -124 -124 -242
-208 -399 -284 -299 -145 -563 -196 -1011 -196 -447 1 -760 55 -1063 186 -64
28 -123 53 -129 56 -10 4 -13 97 -13 419 0 228 3 414 8 414 4 0 36 -9 72 -20
524 -163 1055 -193 1372 -77 272 99 434 329 477 677 8 57 11 831 11 2362 l0
2278 -2480 0 -2480 0 0 -3500z"/>
</g>
</svg>
